<svg width="11" height="19" viewBox="0 0 11 19" fill="none" xmlns="http://www.w3.org/2000/svg">
<path d="M0.406284 8.9344L9.1141 0.637527C9.25939 0.49902 9.45243 0.421753 9.65316 0.421753C9.8539 0.421753 10.0469 0.49902 10.1922 0.637527L10.2016 0.646902C10.2723 0.714048 10.3286 0.794871 10.367 0.884453C10.4055 0.974036 10.4253 1.07051 10.4253 1.168C10.4253 1.26549 10.4055 1.36196 10.367 1.45154C10.3286 1.54112 10.2723 1.62194 10.2016 1.68909L2.0016 9.50159L10.2016 17.311C10.2723 17.3781 10.3286 17.4589 10.367 17.5485C10.4055 17.6381 10.4253 17.7346 10.4253 17.8321C10.4253 17.9295 10.4055 18.026 10.367 18.1156C10.3286 18.2052 10.2723 18.286 10.2016 18.3531L10.1922 18.3625C10.0469 18.501 9.85389 18.5783 9.65316 18.5783C9.45242 18.5783 9.25939 18.501 9.1141 18.3625L0.406284 10.0657C0.329703 9.99269 0.268735 9.90493 0.227078 9.8077C0.18542 9.71048 0.16394 9.6058 0.16394 9.50003C0.16394 9.39425 0.18542 9.28958 0.227078 9.19235C0.268735 9.09512 0.329703 9.00737 0.406284 8.9344Z" fill="#1B433E"/>
</svg>
