<svg width="16" height="17" viewBox="0 0 16 17" fill="none" xmlns="http://www.w3.org/2000/svg">
<g clip-path="url(#clip0_31_1113)">
<path d="M12.6667 7.83325H3.33333C2.59695 7.83325 2 8.43021 2 9.16659V13.8333C2 14.5696 2.59695 15.1666 3.33333 15.1666H12.6667C13.403 15.1666 14 14.5696 14 13.8333V9.16659C14 8.43021 13.403 7.83325 12.6667 7.83325Z" stroke="#667085" stroke-width="2" stroke-linecap="round" stroke-linejoin="round"/>
<path d="M4.66669 7.83325V5.16659C4.66669 4.28253 5.01788 3.43468 5.643 2.80956C6.26812 2.18444 7.11597 1.83325 8.00002 1.83325C8.88408 1.83325 9.73192 2.18444 10.357 2.80956C10.9822 3.43468 11.3334 4.28253 11.3334 5.16659V7.83325" stroke="#667085" stroke-width="2" stroke-linecap="round" stroke-linejoin="round"/>
</g>
<defs>
<clipPath id="clip0_31_1113">
<rect width="16" height="16" fill="white" transform="translate(0 0.5)"/>
</clipPath>
</defs>
</svg>
